<svg width="415" height="415" viewBox="0 0 415 415" xmlns="http://www.w3.org/2000/svg"><title>Mezhdunarodny_logotip_VK</title><g fill="none" fill-rule="evenodd"><path d="M63.984.042h287.074C386.372.042 415 28.67 415 63.984v287.074C415 386.372 386.372 415 351.058 415H63.984C28.67 415 .042 386.372.042 351.058V63.984C.042 28.67 28.67.042 63.984.042z" fill="#4D75A3"/><path d="M205.04 290.777h16.974s5.125-.566 7.747-3.386c2.41-2.59 2.332-7.456 2.332-7.456s-.33-23.025 10.238-26.378c10.422-3.308 23.804 22.012 37.986 31.748 10.726 7.363 18.875 5.47 18.875 5.47l37.927.034s19.837-1.506 10.43-17.104c-.77-1.274-5.48-11.538-28.2-32.626-23.78-22.072-20.594-18.5 8.05-56.68 17.447-23.252 24.42-37.446 22.24-43.525-2.076-5.79-14.813-4.793-14.813-4.793l-42.793-.016s-3.168-.307-5.514 1.097c-2.294 1.373-3.768 4.936-3.768 4.936s-6.76 18.324-15.772 33.628c-19.013 32.285-26.617 33.995-29.725 31.987-7.23-4.673-5.423-18.768-5.423-28.785 0-31.29 4.746-44.336-9.243-47.713-4.64-1.12-8.058-1.86-19.93-1.982-15.237-.156-28.13.046-35.432 3.623-4.858 2.38-8.606 7.68-6.322 7.985 2.824.377 9.213 1.725 12.6 6.336 4.378 5.955 4.224 19.32 4.224 19.32s2.516 36.835-5.872 41.41c-5.755 3.138-13.65-3.27-30.602-32.56-8.683-15.005-15.243-31.905-15.243-31.905s-1.263-3.1-3.52-4.758c-2.736-2.01-6.558-2.647-6.558-2.647l-40.58.014s-6.088.17-8.326 2.82c-1.99 2.357-.16 7.23-.16 7.23s31.766 74.882 67.738 112.336c32.986 34.344 70.44 32.34 70.44 32.34z" fill="#FFF"/></g></svg>